<svg width="315" height="24" viewBox="0 0 315 24" fill="none" xmlns="http://www.w3.org/2000/svg">
<path d="M7.31248 1.2796C6.79685 1.40147 6.38435 1.70616 6.15466 2.1421C6.04685 2.34366 5.60154 3.93272 4.40154 8.39054C2.85935 14.1233 2.79373 14.3858 2.79373 14.789C2.78904 15.164 2.80779 15.2437 2.93435 15.5155C3.11248 15.8905 3.40779 16.1905 3.75935 16.3593C3.90466 16.4296 4.3031 16.5562 4.6406 16.6452L5.24998 16.8046V18.9468C5.24998 20.353 5.26873 21.1733 5.30154 21.3374C5.40935 21.8296 5.68123 22.2374 6.08435 22.4952C6.55779 22.7952 6.23435 22.7858 13.1531 22.7718L19.4297 22.7577L19.6968 22.6499C20.0765 22.4952 20.4468 22.1437 20.6343 21.7593L20.789 21.4452L20.8125 14.6249L20.8406 7.8046L21.014 7.21866C21.2344 6.48272 21.2765 6.07022 21.164 5.69522C21.0187 5.17022 20.6625 4.75304 20.1984 4.55147C20.0859 4.49991 18.6 4.08741 16.8984 3.63272C15.1968 3.17804 13.1109 2.62022 12.2578 2.39054C7.57029 1.13428 7.76716 1.17647 7.31248 1.2796ZM12.1172 3.96085C14.489 4.59835 17.1375 5.30616 18 5.53585C19.4765 5.9296 19.6875 6.00928 19.6875 6.14991C19.6875 6.2296 17.4234 14.6483 17.3953 14.6765C17.3812 14.6905 16.7578 14.5405 16.0078 14.339C15.2625 14.1374 14.5547 13.9687 14.4422 13.9687C14.1937 13.9687 13.9219 14.114 13.8094 14.3015C13.7625 14.3765 13.5609 15.0655 13.3547 15.8296C13.1484 16.5983 12.9703 17.2312 12.9609 17.2405C12.9422 17.264 13.0219 17.2827 7.96873 15.928C5.53123 15.2765 4.44841 14.9671 4.38748 14.9062C4.29841 14.8171 4.31716 14.7374 5.88748 8.87335C6.96091 4.86085 7.50466 2.90616 7.56091 2.84522C7.60779 2.79835 7.68279 2.77022 7.72498 2.78428C7.76716 2.79835 9.74529 3.32804 12.1172 3.96085ZM19.1906 21.1499C19.1156 21.2296 18.8718 21.2343 13.0453 21.2343C7.04529 21.2343 6.98435 21.2343 6.8906 21.1405C6.80154 21.0515 6.79685 20.9858 6.79685 19.1483C6.79685 17.8218 6.81091 17.2499 6.84841 17.2499C6.87654 17.2499 8.35779 17.6437 10.139 18.1218C12.7219 18.8155 13.425 18.989 13.5984 18.9702C13.7765 18.9562 14.1937 18.7312 16.0359 17.6718C17.2593 16.9687 18.3281 16.3405 18.4125 16.2796C18.4922 16.2187 18.5906 16.1108 18.6281 16.0405C18.6656 15.9702 18.8156 15.4499 18.9656 14.8827L19.2422 13.8515L19.2562 17.4562C19.2656 20.7608 19.2609 21.0702 19.1906 21.1499ZM15.8906 15.9374C15.8906 15.9515 15.7687 16.0265 15.6187 16.1108C15.4734 16.1952 15.2156 16.3405 15.0515 16.4343C14.8078 16.5749 14.7609 16.589 14.7797 16.5187C14.7937 16.4671 14.85 16.2608 14.9062 16.0499L15.0047 15.6702L15.45 15.7921C15.6937 15.8577 15.8906 15.9233 15.8906 15.9374Z" fill="#2A2251"/>
<path d="M9.11255 5.33894C8.84536 5.46082 8.70473 5.67644 8.6813 5.99519C8.66723 6.21082 8.6813 6.28582 8.77505 6.41707C8.8313 6.50613 8.93442 6.61863 9.00005 6.6655C9.15942 6.78269 16.0313 8.62488 16.3079 8.62488C16.8938 8.62488 17.25 7.99207 16.95 7.47644C16.8844 7.37332 16.7672 7.24675 16.6782 7.20457C16.5047 7.1155 9.78755 5.30613 9.49223 5.26863C9.36567 5.25457 9.2438 5.27332 9.11255 5.33894Z" fill="#2A2251"/>
<path d="M8.30626 8.28277C7.92189 8.47027 7.77657 8.93433 7.97814 9.32808C8.03907 9.44058 8.15157 9.57183 8.22657 9.61871C8.30626 9.6609 9.95157 10.125 11.8828 10.6406C15.6281 11.6484 15.6563 11.6531 15.9328 11.4515C16.3781 11.1187 16.3828 10.4859 15.9375 10.1671C15.7969 10.064 8.8547 8.20308 8.62501 8.20308C8.53595 8.20308 8.39064 8.24058 8.30626 8.28277Z" fill="#2A2251"/>
<path d="M7.46252 11.2499C6.96096 11.5546 6.97971 12.3139 7.50002 12.5858C7.71565 12.6983 10.6219 13.453 10.8375 13.453C11.2078 13.453 11.5219 13.1624 11.5641 12.7827C11.5969 12.5108 11.4469 12.1827 11.236 12.0514C11.025 11.9249 8.1094 11.1561 7.83752 11.1561C7.70158 11.1561 7.56096 11.1936 7.46252 11.2499Z" fill="#2A2251"/>
<path d="M58.4672 2.02031C57.4078 2.19844 56.5172 2.96719 56.1375 4.03125L55.9922 4.42969V12V19.5703L56.1375 19.9688C56.4703 20.9016 57.1219 21.5437 58.0734 21.8812L58.4297 22.0078H66H73.5703L73.9453 21.8766C74.4375 21.7031 74.7937 21.4781 75.1359 21.1359C75.4781 20.7937 75.7031 20.4375 75.8766 19.9453L76.0078 19.5703V12V4.42969L75.8766 4.05469C75.5437 3.11719 74.8969 2.46562 73.9687 2.1375L73.5703 1.99219L66.1406 1.9875C62.0531 1.98281 58.6031 1.99687 58.4672 2.02031ZM73.5937 3.66094C73.9219 3.81562 74.1844 4.07812 74.3391 4.40625L74.4609 4.66406V12V19.3359L74.3484 19.5797C74.2125 19.8891 73.8281 20.25 73.5234 20.3719C73.2937 20.4562 73.0828 20.4609 65.9766 20.4609H58.6641L58.4062 20.3391C58.0781 20.1844 57.8156 19.9219 57.6609 19.5938L57.5391 19.3359V12V4.66406L57.6609 4.40625C57.8625 3.97969 58.2375 3.67031 58.6734 3.56719C58.7766 3.54375 61.9641 3.52969 66.0937 3.52969L73.3359 3.53906L73.5937 3.66094Z" fill="#B6B0D9"/>
<path d="M62.0344 7.90765C61.9547 7.95453 61.7109 8.17953 61.5 8.4139C61.2844 8.64359 61.05 8.89671 60.9797 8.9764L60.8437 9.11234L60.6469 8.92015C60.3844 8.67171 60.2859 8.62484 60.0234 8.62484C59.5547 8.62484 59.25 8.92015 59.25 9.36546C59.25 9.5014 59.2828 9.67484 59.3203 9.74515C59.4047 9.9139 60.4266 10.8608 60.5906 10.9217C60.7547 10.9873 61.0969 10.9827 61.2422 10.9123C61.4156 10.8327 63.0422 9.06546 63.1266 8.86859C63.3328 8.37171 62.9625 7.82796 62.4187 7.82796C62.2781 7.82796 62.1187 7.86078 62.0344 7.90765Z" fill="#B6B0D9"/>
<path d="M64.0875 8.71863C63.8578 8.85925 63.75 9.07019 63.75 9.37957C63.75 9.68894 63.8672 9.89988 64.125 10.0499C64.2891 10.1483 64.3406 10.1483 68.25 10.1483C72.1594 10.1483 72.2109 10.1483 72.375 10.0499C72.6328 9.89988 72.75 9.68894 72.75 9.37957C72.75 9.07019 72.6422 8.85925 72.4125 8.71863C72.2625 8.62957 72.1688 8.62488 68.25 8.62488C64.3313 8.62488 64.2375 8.62957 64.0875 8.71863Z" fill="#B6B0D9"/>
<path d="M62.039 13.1156C61.9593 13.1671 61.664 13.4531 61.3734 13.7625L60.8531 14.3156L60.6375 14.1187C60.5203 14.0109 60.3656 13.8984 60.3 13.875C59.9531 13.7437 59.4703 13.9125 59.325 14.2218C59.2218 14.4375 59.2265 14.7984 59.339 14.9765C59.4281 15.1312 60.3656 16.0171 60.5296 16.1109C60.6703 16.1906 61.1015 16.1859 61.2609 16.1015C61.4765 15.9937 63.075 14.2359 63.1406 14.039C63.2578 13.6828 63.089 13.2703 62.7609 13.1015C62.5781 13.0031 62.2125 13.0125 62.039 13.1156Z" fill="#B6B0D9"/>
<path d="M64.0875 13.9218C63.8578 14.0624 63.75 14.2733 63.75 14.5827C63.75 14.8921 63.8672 15.103 64.125 15.253C64.2891 15.3514 64.3406 15.3514 68.25 15.3514C72.1594 15.3514 72.2109 15.3514 72.375 15.253C72.6328 15.103 72.75 14.8921 72.75 14.5827C72.75 14.2733 72.6422 14.0624 72.4125 13.9218C72.2625 13.8327 72.1688 13.828 68.25 13.828C64.3313 13.828 64.2375 13.8327 64.0875 13.9218Z" fill="#B6B0D9"/>
<path d="M247.739 1.34062C245.789 1.62187 244.013 2.55937 242.644 4.03125C240.792 6.02344 239.977 8.87812 240.516 11.4703C240.905 13.3453 242.039 15.2391 243.539 16.5422C243.797 16.7625 244.13 17.0297 244.275 17.1328L244.547 17.3203V18.0187C244.547 18.4266 244.57 18.7969 244.603 18.9094C244.692 19.2047 245.067 19.5516 245.414 19.6641C245.681 19.7531 245.85 19.7578 249 19.7578H252.305L252.586 19.6453C252.769 19.5703 252.947 19.4484 253.106 19.2891C253.434 18.9609 253.5 18.7406 253.5 17.9344L253.505 17.3203L253.838 17.0859C254.269 16.7812 255.159 15.9281 255.544 15.45C257.058 13.5562 257.822 11.2219 257.63 9.05156C257.433 6.80625 256.486 4.90781 254.817 3.40781C254.433 3.06562 253.622 2.50312 253.12 2.24062C252.319 1.81406 251.292 1.48594 250.303 1.34062C249.694 1.24687 248.363 1.24687 247.739 1.34062ZM250.242 2.88281C251.691 3.13594 252.919 3.75469 253.955 4.74844C254.794 5.55937 255.352 6.42187 255.717 7.47656C256.008 8.31094 256.055 8.62969 256.055 9.70312C256.055 10.575 256.041 10.7109 255.928 11.1797C255.455 13.1766 254.292 14.8641 252.6 16.0172C251.972 16.4437 251.953 16.4859 251.953 17.475V18.2344H249H246.047V17.4562C246.047 16.4766 246.033 16.4484 245.395 16.0172C243.642 14.8219 242.409 13.0359 241.983 11.0625C241.856 10.4672 241.87 9.19687 242.011 8.53125C242.311 7.10625 242.963 5.89687 243.961 4.89844C244.589 4.27031 245.138 3.87656 245.883 3.51562C246.666 3.13594 247.402 2.91562 248.25 2.8125C248.714 2.75625 249.717 2.79375 250.242 2.88281Z" fill="#BEB9DD"/>
<path d="M248.602 7.23752C248.438 7.33596 248.33 7.49533 247.8 8.42346C247.463 9.0094 247.163 9.56252 247.134 9.65158C246.97 10.1344 247.144 10.7578 247.514 11.011C247.814 11.2125 247.983 11.25 248.583 11.25C248.892 11.25 249.141 11.2594 249.141 11.2781C249.141 11.2922 248.948 11.6344 248.709 12.0375C248.32 12.7031 248.278 12.8016 248.259 13.0547C248.245 13.2938 248.259 13.3594 248.353 13.4953C248.606 13.8656 248.995 13.9735 249.37 13.7719C249.563 13.6688 249.628 13.5797 250.163 12.6563C250.486 12.1031 250.786 11.55 250.833 11.4235C251.039 10.9031 250.884 10.261 250.486 9.98908C250.186 9.78752 250.017 9.75002 249.417 9.75002C249.108 9.75002 248.859 9.74065 248.859 9.72658C248.859 9.71252 249.061 9.35158 249.305 8.92033C249.708 8.21721 249.75 8.11408 249.75 7.89846C249.75 7.59377 249.628 7.36408 249.394 7.23283C249.145 7.08752 248.845 7.09221 248.602 7.23752Z" fill="#BEB9DD"/>
<path d="M248.25 20.7469C246.741 20.8735 245.334 21.15 245.016 21.375C244.842 21.5016 244.734 21.7407 244.734 22.0172C244.734 22.2844 244.856 22.5094 245.072 22.6407C245.334 22.8 245.489 22.8 246.094 22.6453C247.097 22.3922 247.866 22.2985 249 22.2985C250.139 22.2985 250.838 22.3828 251.897 22.6453C252.572 22.8141 252.731 22.8047 253.008 22.5844C253.359 22.3125 253.35 21.7125 252.989 21.4078C252.623 21.0985 250.833 20.7797 249.286 20.7469C248.831 20.7375 248.367 20.7375 248.25 20.7469Z" fill="#BEB9DD"/>
<path d="M303 15C304.657 15 306 13.6569 306 12C306 10.3431 304.657 9 303 9C301.343 9 300 10.3431 300 12C300 13.6569 301.343 15 303 15Z" stroke="#BEB9DD" stroke-width="2" stroke-linecap="round" stroke-linejoin="round"/>
<path d="M309.727 14.7273C309.606 15.0015 309.57 15.3056 309.624 15.6005C309.677 15.8954 309.818 16.1676 310.027 16.3818L310.082 16.4364C310.251 16.6052 310.385 16.8057 310.476 17.0265C310.568 17.2472 310.615 17.4838 310.615 17.7227C310.615 17.9617 310.568 18.1983 310.476 18.419C310.385 18.6397 310.251 18.8402 310.082 19.0091C309.913 19.1781 309.712 19.3122 309.492 19.4037C309.271 19.4952 309.034 19.5423 308.795 19.5423C308.557 19.5423 308.32 19.4952 308.099 19.4037C307.878 19.3122 307.678 19.1781 307.509 19.0091L307.455 18.9545C307.24 18.745 306.968 18.6044 306.673 18.5509C306.378 18.4974 306.074 18.5335 305.8 18.6545C305.531 18.7698 305.302 18.9611 305.14 19.205C304.979 19.4489 304.892 19.7347 304.891 20.0273V20.1818C304.891 20.664 304.699 21.1265 304.358 21.4675C304.017 21.8084 303.555 22 303.073 22C302.591 22 302.128 21.8084 301.787 21.4675C301.446 21.1265 301.255 20.664 301.255 20.1818V20.1C301.248 19.7991 301.15 19.5073 300.975 19.2625C300.8 19.0176 300.555 18.8312 300.273 18.7273C299.999 18.6063 299.694 18.5702 299.399 18.6236C299.105 18.6771 298.832 18.8177 298.618 19.0273L298.564 19.0818C298.395 19.2509 298.194 19.385 297.974 19.4765C297.753 19.568 297.516 19.6151 297.277 19.6151C297.038 19.6151 296.802 19.568 296.581 19.4765C296.36 19.385 296.16 19.2509 295.991 19.0818C295.822 18.913 295.688 18.7124 295.596 18.4917C295.505 18.271 295.458 18.0344 295.458 17.7955C295.458 17.5565 295.505 17.3199 295.596 17.0992C295.688 16.8785 295.822 16.678 295.991 16.5091L296.045 16.4545C296.255 16.2403 296.396 15.9682 296.449 15.6733C296.503 15.3784 296.466 15.0742 296.345 14.8C296.23 14.5311 296.039 14.3018 295.795 14.1403C295.551 13.9788 295.265 13.8921 294.973 13.8909H294.818C294.336 13.8909 293.874 13.6994 293.533 13.3584C293.192 13.0174 293 12.5549 293 12.0727C293 11.5905 293.192 11.1281 293.533 10.7871C293.874 10.4461 294.336 10.2545 294.818 10.2545H294.9C295.201 10.2475 295.493 10.1501 295.738 9.97501C295.982 9.79991 296.169 9.55521 296.273 9.27273C296.394 8.99853 296.43 8.69437 296.376 8.39947C296.323 8.10456 296.182 7.83244 295.973 7.61818L295.918 7.56364C295.749 7.39478 295.615 7.19425 295.524 6.97353C295.432 6.7528 295.385 6.51621 295.385 6.27727C295.385 6.03834 295.432 5.80174 295.524 5.58102C295.615 5.36029 295.749 5.15977 295.918 4.99091C296.087 4.82186 296.288 4.68775 296.508 4.59626C296.729 4.50476 296.966 4.45766 297.205 4.45766C297.443 4.45766 297.68 4.50476 297.901 4.59626C298.122 4.68775 298.322 4.82186 298.491 4.99091L298.545 5.04545C298.76 5.25503 299.032 5.39562 299.327 5.4491C299.622 5.50257 299.926 5.46647 300.2 5.34545H300.273C300.542 5.23022 300.771 5.03887 300.932 4.79497C301.094 4.55107 301.181 4.26526 301.182 3.97273V3.81818C301.182 3.33597 301.373 2.87351 301.714 2.53253C302.055 2.19156 302.518 2 303 2C303.482 2 303.945 2.19156 304.286 2.53253C304.627 2.87351 304.818 3.33597 304.818 3.81818V3.9C304.819 4.19253 304.906 4.47834 305.068 4.72224C305.229 4.96614 305.458 5.15749 305.727 5.27273C306.001 5.39374 306.306 5.42984 306.601 5.37637C306.895 5.3229 307.168 5.18231 307.382 4.97273L307.436 4.91818C307.605 4.74913 307.806 4.61503 308.026 4.52353C308.247 4.43203 308.484 4.38493 308.723 4.38493C308.962 4.38493 309.198 4.43203 309.419 4.52353C309.64 4.61503 309.84 4.74913 310.009 4.91818C310.178 5.08704 310.312 5.28757 310.404 5.50829C310.495 5.72901 310.542 5.96561 310.542 6.20455C310.542 6.44348 310.495 6.68008 310.404 6.9008C310.312 7.12152 310.178 7.32205 310.009 7.49091L309.955 7.54545C309.745 7.75971 309.604 8.03183 309.551 8.32674C309.497 8.62164 309.534 8.9258 309.655 9.2V9.27273C309.77 9.54161 309.961 9.77093 310.205 9.93245C310.449 10.094 310.735 10.1807 311.027 10.1818H311.182C311.664 10.1818 312.126 10.3734 312.467 10.7144C312.808 11.0553 313 11.5178 313 12C313 12.4822 312.808 12.9447 312.467 13.2856C312.126 13.6266 311.664 13.8182 311.182 13.8182H311.1C310.807 13.8193 310.522 13.906 310.278 14.0676C310.034 14.2291 309.843 14.4584 309.727 14.7273Z" stroke="#BEB9DD" stroke-width="2" stroke-linecap="round" stroke-linejoin="round"/>
</svg>
